<mxfile host="app.diagrams.net" modified="2023-03-09T01:53:51.678Z" agent="5.0 (Windows NT 10.0; Win64; x64) AppleWebKit/537.36 (KHTML, like Gecko) Chrome/110.0.0.0 Safari/537.36" etag="WC8G43UT1s2T_WJKvP-M" version="20.8.20" type="github">
  <diagram name="Page-1" id="dq--NyVVzHYp0RAmcnq9">
    <mxGraphModel dx="1434" dy="796" grid="1" gridSize="10" guides="1" tooltips="1" connect="1" arrows="1" fold="1" page="1" pageScale="1" pageWidth="850" pageHeight="1100" math="0" shadow="0">
      <root>
        <mxCell id="0" />
        <mxCell id="1" parent="0" />
        <mxCell id="ESznvufkhDQmCv0Kfaj9-4" value="" style="edgeStyle=orthogonalEdgeStyle;rounded=0;orthogonalLoop=1;jettySize=auto;html=1;labelBackgroundColor=none;strokeColor=#A8201A;fontColor=default;" parent="1" source="h_QH8nb2sYljmH_Zw2kq-1" target="ESznvufkhDQmCv0Kfaj9-3" edge="1">
          <mxGeometry relative="1" as="geometry" />
        </mxCell>
        <mxCell id="h_QH8nb2sYljmH_Zw2kq-1" value="Set Counter to 0" style="rounded=0;whiteSpace=wrap;html=1;labelBackgroundColor=none;fillColor=#FAE5C7;strokeColor=#0F8B8D;fontColor=#143642;" parent="1" vertex="1">
          <mxGeometry x="290" y="300" width="120" height="60" as="geometry" />
        </mxCell>
        <mxCell id="ESznvufkhDQmCv0Kfaj9-2" value="" style="edgeStyle=orthogonalEdgeStyle;rounded=0;orthogonalLoop=1;jettySize=auto;html=1;labelBackgroundColor=none;strokeColor=#A8201A;fontColor=default;" parent="1" target="h_QH8nb2sYljmH_Zw2kq-1" edge="1">
          <mxGeometry relative="1" as="geometry">
            <mxPoint x="350" y="260" as="sourcePoint" />
          </mxGeometry>
        </mxCell>
        <mxCell id="ESznvufkhDQmCv0Kfaj9-7" value="" style="edgeStyle=orthogonalEdgeStyle;rounded=0;orthogonalLoop=1;jettySize=auto;html=1;labelBackgroundColor=none;strokeColor=#A8201A;fontColor=default;" parent="1" source="ESznvufkhDQmCv0Kfaj9-3" target="ESznvufkhDQmCv0Kfaj9-5" edge="1">
          <mxGeometry relative="1" as="geometry" />
        </mxCell>
        <mxCell id="ESznvufkhDQmCv0Kfaj9-3" value="Evaluate Condition True or False" style="rhombus;whiteSpace=wrap;html=1;labelBackgroundColor=none;fillColor=#FAE5C7;strokeColor=#0F8B8D;fontColor=#143642;" parent="1" vertex="1">
          <mxGeometry x="217.5" y="400" width="265" height="130" as="geometry" />
        </mxCell>
        <mxCell id="ESznvufkhDQmCv0Kfaj9-8" value="" style="edgeStyle=orthogonalEdgeStyle;rounded=0;orthogonalLoop=1;jettySize=auto;html=1;entryX=1;entryY=0.5;entryDx=0;entryDy=0;labelBackgroundColor=none;strokeColor=#A8201A;fontColor=default;" parent="1" source="ESznvufkhDQmCv0Kfaj9-5" target="ESznvufkhDQmCv0Kfaj9-3" edge="1">
          <mxGeometry relative="1" as="geometry">
            <mxPoint x="520" y="620" as="targetPoint" />
            <Array as="points">
              <mxPoint x="350" y="700" />
              <mxPoint x="503" y="700" />
              <mxPoint x="503" y="465" />
            </Array>
          </mxGeometry>
        </mxCell>
        <mxCell id="ESznvufkhDQmCv0Kfaj9-10" value="" style="edgeStyle=orthogonalEdgeStyle;rounded=0;orthogonalLoop=1;jettySize=auto;html=1;labelBackgroundColor=none;strokeColor=#A8201A;fontColor=default;" parent="1" source="ESznvufkhDQmCv0Kfaj9-5" target="ESznvufkhDQmCv0Kfaj9-9" edge="1">
          <mxGeometry relative="1" as="geometry" />
        </mxCell>
        <mxCell id="ESznvufkhDQmCv0Kfaj9-5" value="If true execute loop" style="rounded=0;whiteSpace=wrap;html=1;labelBackgroundColor=none;fillColor=#FAE5C7;strokeColor=#0F8B8D;fontColor=#143642;" parent="1" vertex="1">
          <mxGeometry x="290" y="570" width="120" height="60" as="geometry" />
        </mxCell>
        <mxCell id="ESznvufkhDQmCv0Kfaj9-9" value="Increment Counter" style="rounded=0;whiteSpace=wrap;html=1;labelBackgroundColor=none;fillColor=#FAE5C7;strokeColor=#0F8B8D;fontColor=#143642;" parent="1" vertex="1">
          <mxGeometry x="290" y="670" width="120" height="60" as="geometry" />
        </mxCell>
        <mxCell id="ESznvufkhDQmCv0Kfaj9-13" value="Yes" style="text;html=1;align=center;verticalAlign=middle;resizable=0;points=[];autosize=1;strokeColor=none;fillColor=none;labelBackgroundColor=none;fontColor=#143642;" parent="1" vertex="1">
          <mxGeometry x="500" y="585" width="40" height="30" as="geometry" />
        </mxCell>
        <mxCell id="ESznvufkhDQmCv0Kfaj9-15" value="Start" style="rounded=1;whiteSpace=wrap;html=1;labelBackgroundColor=none;fillColor=#FAE5C7;strokeColor=#0F8B8D;fontColor=#143642;" parent="1" vertex="1">
          <mxGeometry x="290" y="200" width="120" height="60" as="geometry" />
        </mxCell>
        <mxCell id="ESznvufkhDQmCv0Kfaj9-17" value="" style="endArrow=classic;html=1;rounded=0;labelBackgroundColor=none;strokeColor=#A8201A;fontColor=default;" parent="1" edge="1">
          <mxGeometry width="50" height="50" relative="1" as="geometry">
            <mxPoint x="349.5" y="730" as="sourcePoint" />
            <mxPoint x="349.5" y="780" as="targetPoint" />
          </mxGeometry>
        </mxCell>
        <mxCell id="ESznvufkhDQmCv0Kfaj9-18" value="No" style="text;html=1;align=center;verticalAlign=middle;resizable=0;points=[];autosize=1;strokeColor=none;fillColor=none;labelBackgroundColor=none;fontColor=#143642;" parent="1" vertex="1">
          <mxGeometry x="350" y="745" width="40" height="30" as="geometry" />
        </mxCell>
        <mxCell id="ESznvufkhDQmCv0Kfaj9-19" value="Exit Loop" style="rounded=0;whiteSpace=wrap;html=1;labelBackgroundColor=none;fillColor=#FAE5C7;strokeColor=#0F8B8D;fontColor=#143642;" parent="1" vertex="1">
          <mxGeometry x="290" y="780" width="120" height="60" as="geometry" />
        </mxCell>
        <mxCell id="rOTvQEjk0kANYLPhpXw1-1" value="" style="endArrow=classic;html=1;rounded=0;strokeColor=#A8201A;fontColor=#143642;fillColor=#FAE5C7;exitX=0.5;exitY=1;exitDx=0;exitDy=0;" edge="1" parent="1" source="ESznvufkhDQmCv0Kfaj9-19">
          <mxGeometry width="50" height="50" relative="1" as="geometry">
            <mxPoint x="350" y="850" as="sourcePoint" />
            <mxPoint x="350" y="900" as="targetPoint" />
          </mxGeometry>
        </mxCell>
        <mxCell id="rOTvQEjk0kANYLPhpXw1-2" value="END" style="rounded=1;whiteSpace=wrap;html=1;strokeColor=#0F8B8D;fontColor=#143642;fillColor=#FAE5C7;" vertex="1" parent="1">
          <mxGeometry x="290" y="900" width="120" height="60" as="geometry" />
        </mxCell>
      </root>
    </mxGraphModel>
  </diagram>
</mxfile>
